# xmcd
#
# Track frame offsets:
#	150
#	15914
#	29368
#	52300
#	66376
#	88435
#	103148
#	124821
#	142438
#	158117
#
# Disc length: 2342 seconds
#
# Revision: 1
# Processed by: cddbd v1.5.2PL0 Copyright (c) Steve Scherf et al.
# Submitted via: audiograbber 1.83.01
#
DISCID=9809240a
DTITLE=Miko Marks - Freeway Bound
DYEAR=2005
DGENRE=Country
TTITLE0=Freeway Bound
TTITLE1=Kickin' back
TTITLE2=Mama
TTITLE3=Don't come cryin' to me
TTITLE4=Feelin' the Rain
TTITLE5=Find my Way home
TTITLE6=The lonely One
TTITLE7=Excited
TTITLE8=All I wanna do
TTITLE9=I believe in you
EXTD=
EXTT0=
EXTT1=
EXTT2=
EXTT3=
EXTT4=
EXTT5=
EXTT6=
EXTT7=
EXTT8=
EXTT9=
PLAYORDER=
